<svg xmlns="http://www.w3.org/2000/svg" width="780" height="300" viewBox="0 0 780 300" fill="none">
  <defs>
    <filter id="glow" x="-40%" y="-80%" width="180%" height="260%">
      <feGaussianBlur stdDeviation="7" result="blur"/>
      <feColorMatrix in="blur" type="matrix" values="0 0 0 0 0.02 0 0 0 0 0.46 0 0 0 0 1 0 0 0 .95 0"/>
      <feMerge><feMergeNode/><feMergeNode in="SourceGraphic"/></feMerge>
    </filter>
  </defs>
  <g filter="url(#glow)" stroke-linecap="round" stroke-linejoin="round">
    <path d="M8 175c72-33 116-57 190-39 54 13 85 56 139 55 49-1 82-44 129-61 76-26 149-6 213 35 31 20 57 41 93 51" stroke="#2bb8ff" stroke-width="4"/>
    <path d="m205 136 35-48-8 56 60-18-39 35 39 19-65-4-22 45 2-53-57 12 55-44Z" stroke="#6edcff" stroke-width="2.5"/>
    <path d="M470 130 491 88l1 47 44-17-30 31 35 14-48-2-16 36-2-42-44 12 39-37Z" stroke="#6edcff" stroke-width="2.3"/>
    <path d="M610 141c27 18 49 34 83 42" stroke="#87e3ff" stroke-width="2"/>
    <path d="M91 156c28-12 50-18 79-18" stroke="#87e3ff" stroke-width="2"/>
  </g>
</svg>
