<svg xmlns="http://www.w3.org/2000/svg" width="980" height="560" viewBox="0 0 980 560" fill="none">
  <defs>
    <filter id="sparkGlow" x="-180%" y="-180%" width="460%" height="460%">
      <feGaussianBlur stdDeviation="3" result="blur"/>
      <feMerge>
        <feMergeNode in="blur"/>
        <feMergeNode in="SourceGraphic"/>
      </feMerge>
    </filter>
  </defs>
  <g filter="url(#sparkGlow)">
    <circle cx="70" cy="270" r="2.8" fill="#e4faff" opacity=".9"/>
    <circle cx="112" cy="205" r="1.8" fill="#6bddff" opacity=".72"/>
    <circle cx="148" cy="330" r="2.2" fill="#2196ff" opacity=".78"/>
    <circle cx="198" cy="164" r="1.6" fill="#e4faff" opacity=".65"/>
    <circle cx="248" cy="392" r="2.8" fill="#6bddff" opacity=".86"/>
    <circle cx="302" cy="119" r="2.4" fill="#e4faff" opacity=".76"/>
    <circle cx="352" cy="450" r="1.9" fill="#2196ff" opacity=".72"/>
    <circle cx="402" cy="96" r="1.7" fill="#6bddff" opacity=".62"/>
    <circle cx="442" cy="242" r="2.6" fill="#e4faff" opacity=".88"/>
    <circle cx="482" cy="492" r="2.1" fill="#2196ff" opacity=".72"/>
    <circle cx="522" cy="137" r="2.5" fill="#6bddff" opacity=".8"/>
    <circle cx="566" cy="365" r="1.8" fill="#e4faff" opacity=".74"/>
    <circle cx="612" cy="205" r="2.8" fill="#2196ff" opacity=".82"/>
    <circle cx="652" cy="445" r="2.2" fill="#6bddff" opacity=".7"/>
    <circle cx="694" cy="156" r="3" fill="#e4faff" opacity=".88"/>
    <circle cx="728" cy="304" r="1.9" fill="#2196ff" opacity=".72"/>
    <circle cx="764" cy="232" r="2.6" fill="#6bddff" opacity=".82"/>
    <circle cx="806" cy="390" r="2" fill="#e4faff" opacity=".74"/>
    <circle cx="842" cy="184" r="2.4" fill="#2196ff" opacity=".78"/>
    <circle cx="876" cy="292" r="1.8" fill="#6bddff" opacity=".68"/>
    <circle cx="914" cy="356" r="2.5" fill="#e4faff" opacity=".84"/>
    <circle cx="928" cy="222" r="1.7" fill="#005dff" opacity=".7"/>
    <circle cx="224" cy="272" r="1.8" fill="#005dff" opacity=".68"/>
    <circle cx="326" cy="304" r="2.2" fill="#e4faff" opacity=".72"/>
    <circle cx="548" cy="266" r="2.4" fill="#6bddff" opacity=".76"/>
    <circle cx="700" cy="384" r="2.7" fill="#e4faff" opacity=".78"/>
  </g>
  <g stroke="#6bddff" stroke-width="1.1" opacity=".38" stroke-linecap="round">
    <path d="M70 270h64l40 60"/>
    <path d="M442 242h126l44-37"/>
    <path d="M694 156h148l34 136"/>
    <path d="M248 392h234l84-27"/>
    <path d="M700 384h114l100-28"/>
  </g>
</svg>
