<svg xmlns="http://www.w3.org/2000/svg" width="1200" height="420" viewBox="0 0 1200 420" fill="none">
  <defs>
    <filter id="electricBloom" x="-20%" y="-70%" width="140%" height="240%" color-interpolation-filters="sRGB">
      <feGaussianBlur stdDeviation="18" result="wide"/>
      <feColorMatrix in="wide" type="matrix" values="0 0 0 0 0.02 0 0 0 0 0.34 0 0 0 0 1 0 0 0 .78 0" result="wideBlue"/>
      <feGaussianBlur in="SourceGraphic" stdDeviation="4" result="tight"/>
      <feColorMatrix in="tight" type="matrix" values="0 0 0 0 0.18 0 0 0 0 0.82 0 0 0 0 1 0 0 0 1 0" result="tightCyan"/>
      <feMerge>
        <feMergeNode in="wideBlue"/>
        <feMergeNode in="tightCyan"/>
        <feMergeNode in="SourceGraphic"/>
      </feMerge>
    </filter>
    <filter id="mistBlur" x="-20%" y="-80%" width="140%" height="260%">
      <feGaussianBlur stdDeviation="22"/>
    </filter>
    <radialGradient id="leftBloom" cx="50%" cy="50%" r="50%">
      <stop offset="0" stop-color="#82eaff" stop-opacity=".62"/>
      <stop offset=".36" stop-color="#128dff" stop-opacity=".28"/>
      <stop offset="1" stop-color="#001a66" stop-opacity="0"/>
    </radialGradient>
    <linearGradient id="stormMist" x1="70" y1="200" x2="1130" y2="210" gradientUnits="userSpaceOnUse">
      <stop stop-color="#0b65ff" stop-opacity=".07"/>
      <stop offset=".35" stop-color="#24cfff" stop-opacity=".2"/>
      <stop offset=".68" stop-color="#159cff" stop-opacity=".22"/>
      <stop offset="1" stop-color="#0b5aff" stop-opacity=".08"/>
    </linearGradient>
  </defs>
  <path d="M80 248c108-86 210-120 332-82 88 28 142 79 235 69 82-9 133-82 232-75 82 6 154 50 245 114" stroke="url(#stormMist)" stroke-width="96" stroke-linecap="round" filter="url(#mistBlur)" opacity=".8"/>
  <ellipse cx="420" cy="210" rx="260" ry="118" fill="url(#leftBloom)" opacity=".58"/>
  <ellipse cx="845" cy="214" rx="330" ry="126" fill="url(#leftBloom)" opacity=".5"/>
  <g filter="url(#electricBloom)" stroke-linecap="round" stroke-linejoin="round">
    <path d="M36 252 88 230 128 197 178 207 228 169 281 181 326 154 378 178 432 169 487 214 545 226 602 214 657 184 720 198 780 172 841 184 910 214 969 198 1036 226 1096 234 1162 270" stroke="#0d8dff" stroke-width="8" opacity=".85"/>
    <path d="M45 252 96 237 134 205 182 214 232 179 282 190 327 164 378 187 430 178 484 220 545 235 604 224 662 194 721 207 780 183 840 195 906 223 969 210 1032 236 1094 244 1152 273" stroke="#9cefff" stroke-width="3.5" opacity=".96"/>
    <path d="M174 206 135 154 100 132" stroke="#e7fbff" stroke-width="2.3" opacity=".76"/>
    <path d="M229 171 245 120 286 84" stroke="#e7fbff" stroke-width="2.4" opacity=".75"/>
    <path d="M280 181 308 222 358 248" stroke="#aef3ff" stroke-width="2.5" opacity=".78"/>
    <path d="M379 177 394 124 438 96" stroke="#e7fbff" stroke-width="2.2" opacity=".7"/>
    <path d="M430 174 466 136 516 125" stroke="#bff6ff" stroke-width="2.4" opacity=".7"/>
    <path d="M486 215 448 246 405 262" stroke="#9beeff" stroke-width="2.2" opacity=".68"/>
    <path d="M603 216 642 244 697 260" stroke="#9beeff" stroke-width="2.2" opacity=".7"/>
    <path d="M659 187 686 139 740 112" stroke="#e7fbff" stroke-width="2.5" opacity=".76"/>
    <path d="M720 199 748 239 801 266" stroke="#aef3ff" stroke-width="2.6" opacity=".78"/>
    <path d="M780 175 817 124 866 101" stroke="#e7fbff" stroke-width="2.4" opacity=".74"/>
    <path d="M840 186 884 155 936 150" stroke="#bff6ff" stroke-width="2.4" opacity=".72"/>
    <path d="M908 216 879 257 829 286" stroke="#9beeff" stroke-width="2.2" opacity=".68"/>
    <path d="M970 201 1015 168 1080 156" stroke="#d9fbff" stroke-width="2.5" opacity=".74"/>
    <path d="M1035 228 1064 278 1115 312" stroke="#aef3ff" stroke-width="2.4" opacity=".72"/>
    <path d="M185 214 148 236 116 272" stroke="#72ddff" stroke-width="2" opacity=".64"/>
    <path d="M327 157 354 111 407 77" stroke="#ffffff" stroke-width="1.8" opacity=".56"/>
    <path d="M545 226 580 260 640 282" stroke="#78e4ff" stroke-width="2" opacity=".62"/>
    <path d="M842 188 889 227 955 240" stroke="#7de8ff" stroke-width="2" opacity=".62"/>
  </g>
  <g opacity=".72">
    <circle cx="118" cy="205" r="2.4" fill="#9becff"/>
    <circle cx="166" cy="234" r="1.8" fill="#55d7ff"/>
    <circle cx="248" cy="152" r="2.6" fill="#c7f8ff"/>
    <circle cx="318" cy="185" r="2.2" fill="#7fe7ff"/>
    <circle cx="408" cy="167" r="2.6" fill="#baf6ff"/>
    <circle cx="522" cy="232" r="2" fill="#59d9ff"/>
    <circle cx="641" cy="202" r="2.4" fill="#9becff"/>
    <circle cx="736" cy="186" r="2" fill="#62ddff"/>
    <circle cx="835" cy="164" r="2.8" fill="#c8f9ff"/>
    <circle cx="938" cy="220" r="2.3" fill="#8becff"/>
    <circle cx="1042" cy="208" r="2" fill="#52d5ff"/>
    <circle cx="1125" cy="252" r="2.6" fill="#baf6ff"/>
  </g>
</svg>
