<svg xmlns="http://www.w3.org/2000/svg" width="980" height="240" viewBox="0 0 980 240" fill="none">
  <defs>
    <filter id="frontBloom" x="-30%" y="-120%" width="160%" height="340%" color-interpolation-filters="sRGB">
      <feGaussianBlur stdDeviation="13" result="wide"/>
      <feColorMatrix in="wide" type="matrix" values="0 0 0 0 0.01 0 0 0 0 0.45 0 0 0 0 1 0 0 0 .78 0" result="blueWide"/>
      <feGaussianBlur in="SourceGraphic" stdDeviation="3" result="tight"/>
      <feColorMatrix in="tight" type="matrix" values="0 0 0 0 0.2 0 0 0 0 0.82 0 0 0 0 1 0 0 0 .95 0" result="cyanTight"/>
      <feMerge>
        <feMergeNode in="blueWide"/>
        <feMergeNode in="cyanTight"/>
        <feMergeNode in="SourceGraphic"/>
      </feMerge>
    </filter>
    <radialGradient id="frontPad" cx="50%" cy="55%" r="58%">
      <stop offset="0" stop-color="#8defff" stop-opacity=".42"/>
      <stop offset=".46" stop-color="#139dff" stop-opacity=".22"/>
      <stop offset="1" stop-color="#001c66" stop-opacity="0"/>
    </radialGradient>
  </defs>
  <ellipse cx="492" cy="140" rx="430" ry="80" fill="url(#frontPad)" opacity=".68"/>
  <g filter="url(#frontBloom)" stroke-linecap="round" stroke-linejoin="round">
    <path d="M22 146c98-28 176-22 258 9 86 32 154 21 235-26 88-52 178-51 272-13 64 26 120 27 171 8" stroke="#10a4ff" stroke-width="6.5" opacity=".88"/>
    <path d="M32 148c96-15 176-11 257 19 85 31 151 15 231-28 84-45 171-48 264-9 65 27 118 23 169 4" stroke="#a8f2ff" stroke-width="3" opacity=".94"/>
    <path d="M198 158 156 122 112 107" stroke="#e9fbff" stroke-width="2.2" opacity=".7"/>
    <path d="M280 156 310 116 360 95" stroke="#e9fbff" stroke-width="2.4" opacity=".72"/>
    <path d="M408 155 366 190 315 208" stroke="#83eaff" stroke-width="2.3" opacity=".68"/>
    <path d="M522 130 552 91 608 70" stroke="#e9fbff" stroke-width="2.4" opacity=".72"/>
    <path d="M618 117 650 151 705 169" stroke="#89eaff" stroke-width="2.4" opacity=".7"/>
    <path d="M760 112 800 83 860 78" stroke="#d8fbff" stroke-width="2.3" opacity=".68"/>
    <path d="M808 126 848 162 920 172" stroke="#88eaff" stroke-width="2.2" opacity=".66"/>
  </g>
  <g fill="#a8f2ff" opacity=".7">
    <circle cx="91" cy="131" r="2.3"/>
    <circle cx="174" cy="160" r="1.9"/>
    <circle cx="283" cy="122" r="2.5"/>
    <circle cx="514" cy="127" r="2.2"/>
    <circle cx="648" cy="103" r="2.4"/>
    <circle cx="787" cy="139" r="2.4"/>
    <circle cx="904" cy="143" r="2.1"/>
  </g>
</svg>
