<svg xmlns="http://www.w3.org/2000/svg" width="760" height="330" viewBox="0 0 760 330" fill="none">
  <g opacity=".9" stroke="#1781ff" stroke-width="2" stroke-linecap="round" stroke-linejoin="round">
    <path d="M63 192c17-47 49-83 95-105 49-24 113-35 192-35h126c66 0 117 13 154 39 31 22 52 54 62 96"/>
    <path d="M82 194h80c17-54 53-81 108-81h178c48 0 84 27 108 81h135"/>
    <path d="M169 195h372"/>
    <path d="M263 86h178c32 0 61 10 86 31l44 37"/>
    <path d="M280 86 221 153h326"/>
    <path d="M116 169c30-3 61-4 93-4"/>
    <path d="M568 165c41 0 76 5 105 14"/>
    <path d="M190 225c0 37-30 67-67 67s-67-30-67-67 30-67 67-67 67 30 67 67Z"/>
    <path d="M641 225c0 37-30 67-67 67s-67-30-67-67 30-67 67-67 67 30 67 67Z"/>
    <path d="M153 225c0 17-13 30-30 30s-30-13-30-30 13-30 30-30 30 13 30 30Z"/>
    <path d="M604 225c0 17-13 30-30 30s-30-13-30-30 13-30 30-30 30 13 30 30Z"/>
    <path d="M63 193 31 206c-11 4-17 15-14 26l5 20h36"/>
    <path d="M692 187h27c14 0 24 13 21 27l-8 38h-83"/>
    <path d="M384 168h55"/>
    <path d="M473 168h41"/>
    <path d="M89 144h65"/>
  </g>
</svg>
