<svg xmlns="http://www.w3.org/2000/svg" width="640" height="520" viewBox="0 0 640 520" fill="none">
  <g opacity=".48" stroke="#1c74ff" stroke-width="1">
    <path d="M45 28h48l24 41-24 42H45L21 69 45 28Z"/>
    <path d="M139 28h48l24 41-24 42h-48l-24-42 24-41Z"/>
    <path d="M233 28h48l24 41-24 42h-48l-24-42 24-41Z"/>
    <path d="M92 110h48l24 41-24 42H92l-24-42 24-41Z"/>
    <path d="M186 110h48l24 41-24 42h-48l-24-42 24-41Z"/>
    <path d="M280 110h48l24 41-24 42h-48l-24-42 24-41Z"/>
    <path d="M374 110h48l24 41-24 42h-48l-24-42 24-41Z"/>
    <path d="M45 192h48l24 41-24 42H45l-24-42 24-41Z"/>
    <path d="M139 192h48l24 41-24 42h-48l-24-42 24-41Z"/>
    <path d="M233 192h48l24 41-24 42h-48l-24-42 24-41Z"/>
    <path d="M327 192h48l24 41-24 42h-48l-24-42 24-41Z"/>
    <path d="M421 192h48l24 41-24 42h-48l-24-42 24-41Z"/>
    <path d="M92 274h48l24 41-24 42H92l-24-42 24-41Z"/>
    <path d="M186 274h48l24 41-24 42h-48l-24-42 24-41Z"/>
    <path d="M280 274h48l24 41-24 42h-48l-24-42 24-41Z"/>
  </g>
</svg>
